# Campfire: logs over the bed in a ring of stones. Generated by tools/make_firewood.py
o firewood
v -0.4347 0.0600 -0.0364
v -0.4289 0.0266 -0.0421
v -0.4202 0.0029 -0.0659
v -0.4117 -0.0053 -0.0981
v -0.4057 0.0049 -0.1297
v -0.4033 0.0280 -0.1536
v -0.4054 0.0600 -0.1632
v -0.4112 0.0930 -0.1572
v -0.4198 0.1176 -0.1344
v -0.4279 0.1220 -0.1018
v -0.4347 0.1167 -0.0695
v -0.4364 0.0915 -0.0473
v 0.0856 0.1300 0.0825
v 0.0917 0.0988 0.0741
v 0.0998 0.0721 0.0545
v 0.1083 0.0648 0.0219
v 0.1142 0.0752 -0.0095
v 0.1163 0.0987 -0.0324
v 0.1151 0.1300 -0.0452
v 0.1088 0.1631 -0.0374
v 0.1002 0.1840 -0.0122
v 0.0915 0.1963 0.0180
v 0.0858 0.1850 0.0496
v 0.0838 0.1611 0.0720
v -0.4200 0.0600 -0.1000
v 0.1000 0.1300 0.0200
f 1 2 14 13
f 25 2 1
f 26 13 14
f 2 3 15 14
f 25 3 2
f 26 14 15
f 3 4 16 15
f 25 4 3
f 26 15 16
f 4 5 17 16
f 25 5 4
f 26 16 17
f 5 6 18 17
f 25 6 5
f 26 17 18
f 6 7 19 18
f 25 7 6
f 26 18 19
f 7 8 20 19
f 25 8 7
f 26 19 20
f 8 9 21 20
f 25 9 8
f 26 20 21
f 9 10 22 21
f 25 10 9
f 26 21 22
f 10 11 23 22
f 25 11 10
f 26 22 23
f 11 12 24 23
f 25 12 11
f 26 23 24
f 12 1 13 24
f 25 1 12
f 26 24 13
v 0.3490 0.0600 -0.2705
v 0.3488 0.0308 -0.2612
v 0.3568 0.0090 -0.2408
v 0.3710 -0.0007 -0.2145
v 0.3881 0.0087 -0.1897
v 0.4027 0.0306 -0.1732
v 0.4124 0.0600 -0.1672
v 0.4113 0.0893 -0.1788
v 0.4031 0.1107 -0.1993
v 0.3887 0.1182 -0.2253
v 0.3717 0.1123 -0.2509
v 0.3572 0.0895 -0.2670
v -0.0909 0.1500 -0.0003
v -0.0923 0.1198 0.0075
v -0.0836 0.0981 0.0288
v -0.0687 0.0916 0.0553
v -0.0521 0.0998 0.0797
v -0.0369 0.1201 0.0975
v -0.0276 0.1500 0.1028
v -0.0283 0.1797 0.0918
v -0.0369 0.2007 0.0707
v -0.0509 0.2109 0.0444
v -0.0683 0.2025 0.0190
v -0.0823 0.1790 0.0040
v 0.3800 0.0600 -0.2200
v -0.0600 0.1500 0.0500
f 27 28 40 39
f 51 28 27
f 52 39 40
f 28 29 41 40
f 51 29 28
f 52 40 41
f 29 30 42 41
f 51 30 29
f 52 41 42
f 30 31 43 42
f 51 31 30
f 52 42 43
f 31 32 44 43
f 51 32 31
f 52 43 44
f 32 33 45 44
f 51 33 32
f 52 44 45
f 33 34 46 45
f 51 34 33
f 52 45 46
f 34 35 47 46
f 51 35 34
f 52 46 47
f 35 36 48 47
f 51 36 35
f 52 47 48
f 36 37 49 48
f 51 37 36
f 52 48 49
f 37 38 50 49
f 51 38 37
f 52 49 50
f 38 27 39 50
f 51 27 38
f 52 50 39
v 0.2099 0.0500 0.4013
v 0.2031 0.0228 0.3976
v 0.1824 0.0032 0.4009
v 0.1561 -0.0023 0.4095
v 0.1300 0.0023 0.4203
v 0.1138 0.0234 0.4312
v 0.1090 0.0500 0.4391
v 0.1164 0.0775 0.4427
v 0.1370 0.0981 0.4397
v 0.1640 0.1029 0.4306
v 0.1897 0.0973 0.4197
v 0.2066 0.0769 0.4087
v 0.0317 0.1600 -0.0794
v 0.0213 0.1339 -0.0814
v 0.0023 0.1133 -0.0791
v -0.0240 0.1073 -0.0706
v -0.0492 0.1135 -0.0597
v -0.0657 0.1336 -0.0489
v -0.0707 0.1600 -0.0410
v -0.0622 0.1866 -0.0381
v -0.0429 0.2079 -0.0404
v -0.0160 0.2129 -0.0494
v 0.0082 0.2049 -0.0603
v 0.0274 0.1874 -0.0715
v 0.1600 0.0500 0.4200
v -0.0200 0.1600 -0.0600
f 53 54 66 65
f 77 54 53
f 78 65 66
f 54 55 67 66
f 77 55 54
f 78 66 67
f 55 56 68 67
f 77 56 55
f 78 67 68
f 56 57 69 68
f 77 57 56
f 78 68 69
f 57 58 70 69
f 77 58 57
f 78 69 70
f 58 59 71 70
f 77 59 58
f 78 70 71
f 59 60 72 71
f 77 60 59
f 78 71 72
f 60 61 73 72
f 77 61 60
f 78 72 73
f 61 62 74 73
f 77 62 61
f 78 73 74
f 62 63 75 74
f 77 63 62
f 78 74 75
f 63 64 76 75
f 77 64 63
f 78 75 76
f 64 53 65 76
f 77 53 64
f 78 76 65
v -0.1790 0.0500 0.3887
v -0.1825 0.0253 0.3819
v -0.1966 0.0083 0.3691
v -0.2160 0.0010 0.3542
v -0.2374 0.0059 0.3401
v -0.2530 0.0256 0.3326
v -0.2595 0.0500 0.3323
v -0.2589 0.0757 0.3372
v -0.2433 0.0916 0.3510
v -0.2240 0.0982 0.3657
v -0.2032 0.0924 0.3792
v -0.1855 0.0756 0.3886
v 0.1008 0.1200 -0.0114
v 0.0970 0.0956 -0.0184
v 0.0837 0.0776 -0.0308
v 0.0640 0.0716 -0.0457
v 0.0433 0.0777 -0.0591
v 0.0266 0.0953 -0.0677
v 0.0189 0.1200 -0.0688
v 0.0216 0.1453 -0.0624
v 0.0358 0.1632 -0.0494
v 0.0560 0.1688 -0.0343
v 0.0771 0.1632 -0.0205
v 0.0942 0.1453 -0.0116
v -0.2200 0.0500 0.3600
v 0.0600 0.1200 -0.0400
f 79 80 92 91
f 103 80 79
f 104 91 92
f 80 81 93 92
f 103 81 80
f 104 92 93
f 81 82 94 93
f 103 82 81
f 104 93 94
f 82 83 95 94
f 103 83 82
f 104 94 95
f 83 84 96 95
f 103 84 83
f 104 95 96
f 84 85 97 96
f 103 85 84
f 104 96 97
f 85 86 98 97
f 103 86 85
f 104 97 98
f 86 87 99 98
f 103 87 86
f 104 98 99
f 87 88 100 99
f 103 88 87
f 104 99 100
f 88 89 101 100
f 103 89 88
f 104 100 101
f 89 90 102 101
f 103 90 89
f 104 101 102
f 90 79 91 102
f 103 79 90
f 104 102 91
v -0.0389 0.0500 -0.4523
v -0.0296 0.0216 -0.4486
v -0.0083 0.0016 -0.4454
v 0.0197 -0.0068 -0.4433
v 0.0497 -0.0016 -0.4428
v 0.0712 0.0205 -0.4445
v 0.0757 0.0500 -0.4478
v 0.0691 0.0781 -0.4514
v 0.0487 0.0991 -0.4546
v 0.0203 0.1096 -0.4570
v -0.0085 0.0995 -0.4569
v -0.0288 0.0781 -0.4552
v -0.0596 0.1100 0.0577
v -0.0520 0.0803 0.0615
v -0.0287 0.0609 0.0646
v -0.0003 0.0531 0.0667
v 0.0293 0.0591 0.0671
v 0.0491 0.0817 0.0653
v 0.0593 0.1100 0.0623
v 0.0501 0.1387 0.0586
v 0.0296 0.1605 0.0552
v 0.0003 0.1694 0.0530
v -0.0277 0.1580 0.0533
v -0.0494 0.1384 0.0547
v 0.0200 0.0500 -0.4500
v 0.0000 0.1100 0.0600
f 105 106 118 117
f 129 106 105
f 130 117 118
f 106 107 119 118
f 129 107 106
f 130 118 119
f 107 108 120 119
f 129 108 107
f 130 119 120
f 108 109 121 120
f 129 109 108
f 130 120 121
f 109 110 122 121
f 129 110 109
f 130 121 122
f 110 111 123 122
f 129 111 110
f 130 122 123
f 111 112 124 123
f 129 112 111
f 130 123 124
f 112 113 125 124
f 129 113 112
f 130 124 125
f 113 114 126 125
f 129 114 113
f 130 125 126
f 114 115 127 126
f 129 115 114
f 130 126 127
f 115 116 128 127
f 129 116 115
f 130 127 128
f 116 105 117 128
f 129 105 116
f 130 128 117
v 0.4645 0.1023 0.0000
v 0.5705 0.0977 0.0000
v 0.4725 0.0052 0.0000
v 0.5671 0.0055 0.0000
v 0.5200 0.0163 0.0780
v 0.5200 0.0845 0.0798
v 0.5200 0.0179 -0.0742
v 0.5200 0.0831 -0.0765
v 0.6077 0.0500 -0.0452
v 0.6162 0.0500 0.0495
v 0.4264 0.0500 -0.0482
v 0.4440 0.0500 0.0391
f 131 142 136
f 131 136 132
f 131 132 138
f 131 138 141
f 131 141 142
f 132 136 140
f 136 142 135
f 142 141 133
f 141 138 137
f 138 132 139
f 134 140 135
f 134 135 133
f 134 133 137
f 134 137 139
f 134 139 140
f 135 140 136
f 133 135 142
f 137 133 141
f 139 137 138
f 140 139 132
v 0.3298 0.1008 0.3511
v 0.4433 0.1063 0.3511
v 0.3348 0.0039 0.3511
v 0.4432 -0.0063 0.3511
v 0.3836 0.0202 0.4200
v 0.3836 0.0807 0.4220
v 0.3836 0.0162 0.2728
v 0.3836 0.0806 0.2804
v 0.4714 0.0500 0.3058
v 0.4601 0.0500 0.3905
v 0.2913 0.0500 0.3035
v 0.2960 0.0500 0.3962
f 143 154 148
f 143 148 144
f 143 144 150
f 143 150 153
f 143 153 154
f 144 148 152
f 148 154 147
f 154 153 145
f 153 150 149
f 150 144 151
f 146 152 147
f 146 147 145
f 146 145 149
f 146 149 151
f 146 151 152
f 147 152 148
f 145 147 154
f 149 145 153
f 151 149 150
f 152 151 144
v 0.1861 0.0976 0.4631
v 0.2874 0.0981 0.4631
v 0.1787 -0.0046 0.4631
v 0.2847 0.0045 0.4631
v 0.2365 0.0179 0.5372
v 0.2365 0.0831 0.5395
v 0.2365 0.0212 0.3964
v 0.2365 0.0778 0.3988
v 0.3184 0.0500 0.4209
v 0.3267 0.0500 0.5095
v 0.1484 0.0500 0.4177
v 0.1573 0.0500 0.5039
f 155 166 160
f 155 160 156
f 155 156 162
f 155 162 165
f 155 165 166
f 156 160 164
f 160 166 159
f 166 165 157
f 165 162 161
f 162 156 163
f 158 164 159
f 158 159 157
f 158 157 161
f 158 161 163
f 158 163 164
f 159 164 160
f 157 159 166
f 161 157 165
f 163 161 162
f 164 163 156
v -0.0398 0.0954 0.5199
v 0.0583 0.0973 0.5199
v -0.0494 -0.0044 0.5199
v 0.0630 -0.0017 0.5199
v 0.0082 0.0219 0.5849
v 0.0082 0.0808 0.5910
v 0.0082 0.0189 0.4480
v 0.0082 0.0786 0.4538
v 0.1001 0.0500 0.4726
v 0.0866 0.0500 0.5603
v -0.0762 0.0500 0.4765
v -0.0789 0.0500 0.5648
f 167 178 172
f 167 172 168
f 167 168 174
f 167 174 177
f 167 177 178
f 168 172 176
f 172 178 171
f 178 177 169
f 177 174 173
f 174 168 175
f 170 176 171
f 170 171 169
f 170 169 173
f 170 173 175
f 170 175 176
f 171 176 172
f 169 171 178
f 173 169 177
f 175 173 174
f 176 175 168
v -0.4321 0.1062 0.3628
v -0.3188 0.1008 0.3628
v -0.4326 -0.0066 0.3628
v -0.3245 0.0047 0.3628
v -0.3725 0.0179 0.4370
v -0.3725 0.0803 0.4329
v -0.3725 0.0164 0.2850
v -0.3725 0.0787 0.2964
v -0.2777 0.0500 0.3139
v -0.2848 0.0500 0.4080
v -0.4680 0.0500 0.3136
v -0.4588 0.0500 0.4072
f 179 190 184
f 179 184 180
f 179 180 186
f 179 186 189
f 179 189 190
f 180 184 188
f 184 190 183
f 190 189 181
f 189 186 185
f 186 180 187
f 182 188 183
f 182 183 181
f 182 181 185
f 182 185 187
f 182 187 188
f 183 188 184
f 181 183 190
f 185 181 189
f 187 185 186
f 188 187 180
v -0.5720 0.1045 0.0771
v -0.4565 0.1045 0.0771
v -0.5681 -0.0008 0.0771
v -0.4635 0.0021 0.0771
v -0.5143 0.0222 0.1413
v -0.5143 0.0804 0.1473
v -0.5143 0.0194 0.0064
v -0.5143 0.0777 0.0130
v -0.4373 0.0500 0.0374
v -0.4167 0.0500 0.1273
v -0.6043 0.0500 0.0307
v -0.5953 0.0500 0.1188
f 191 202 196
f 191 196 192
f 191 192 198
f 191 198 201
f 191 201 202
f 192 196 200
f 196 202 195
f 202 201 193
f 201 198 197
f 198 192 199
f 194 200 195
f 194 195 193
f 194 193 197
f 194 197 199
f 194 199 200
f 195 200 196
f 193 195 202
f 197 193 201
f 199 197 198
f 200 199 192
v -0.5670 0.1011 -0.0858
v -0.4614 0.0986 -0.0858
v -0.5647 0.0010 -0.0858
v -0.4609 0.0010 -0.0858
v -0.5129 0.0149 -0.0046
v -0.5129 0.0823 -0.0110
v -0.5129 0.0174 -0.1612
v -0.5129 0.0800 -0.1550
v -0.4222 0.0500 -0.1325
v -0.4343 0.0500 -0.0453
v -0.5899 0.0500 -0.1254
v -0.6072 0.0500 -0.0372
f 203 214 208
f 203 208 204
f 203 204 210
f 203 210 213
f 203 213 214
f 204 208 212
f 208 214 207
f 214 213 205
f 213 210 209
f 210 204 211
f 206 212 207
f 206 207 205
f 206 205 209
f 206 209 211
f 206 211 212
f 207 212 208
f 205 207 214
f 209 205 213
f 211 209 210
f 212 211 204
v -0.4355 0.1022 -0.3548
v -0.3212 0.1056 -0.3548
v -0.4375 -0.0041 -0.3548
v -0.3302 0.0029 -0.3548
v -0.3802 0.0203 -0.2861
v -0.3802 0.0842 -0.2757
v -0.3802 0.0226 -0.4181
v -0.3802 0.0838 -0.4329
v -0.2870 0.0500 -0.4028
v -0.2941 0.0500 -0.3105
v -0.4627 0.0500 -0.3973
v -0.4621 0.0500 -0.3126
f 215 226 220
f 215 220 216
f 215 216 222
f 215 222 225
f 215 225 226
f 216 220 224
f 220 226 219
f 226 225 217
f 225 222 221
f 222 216 223
f 218 224 219
f 218 219 217
f 218 217 221
f 218 221 223
f 218 223 224
f 219 224 220
f 217 219 226
f 221 217 225
f 223 221 222
f 224 223 216
v -0.0490 0.0984 -0.5200
v 0.0625 0.1068 -0.5200
v -0.0489 0.0017 -0.5200
v 0.0598 -0.0043 -0.5200
v 0.0023 0.0158 -0.4410
v 0.0023 0.0804 -0.4497
v 0.0023 0.0192 -0.5912
v 0.0023 0.0803 -0.5900
v 0.0805 0.0500 -0.5603
v 0.0886 0.0500 -0.4755
v -0.0789 0.0500 -0.5618
v -0.0792 0.0500 -0.4780
f 227 238 232
f 227 232 228
f 227 228 234
f 227 234 237
f 227 237 238
f 228 232 236
f 232 238 231
f 238 237 229
f 237 234 233
f 234 228 235
f 230 236 231
f 230 231 229
f 230 229 233
f 230 233 235
f 230 235 236
f 231 236 232
f 229 231 238
f 233 229 237
f 235 233 234
f 236 235 228
v 0.1891 0.1053 -0.4572
v 0.2984 0.0979 -0.4572
v 0.1926 -0.0019 -0.4572
v 0.3050 -0.0041 -0.4572
v 0.2476 0.0170 -0.3810
v 0.2476 0.0845 -0.3774
v 0.2476 0.0159 -0.5361
v 0.2476 0.0846 -0.5371
v 0.3241 0.0500 -0.4966
v 0.3331 0.0500 -0.4133
v 0.1612 0.0500 -0.5018
v 0.1703 0.0500 -0.4174
f 239 250 244
f 239 244 240
f 239 240 246
f 239 246 249
f 239 249 250
f 240 244 248
f 244 250 243
f 250 249 241
f 249 246 245
f 246 240 247
f 242 248 243
f 242 243 241
f 242 241 245
f 242 245 247
f 242 247 248
f 243 248 244
f 241 243 250
f 245 241 249
f 247 245 246
f 248 247 240
v 0.3257 0.1064 -0.3491
v 0.4351 0.0969 -0.3491
v 0.3274 -0.0048 -0.3491
v 0.4343 0.0038 -0.3491
v 0.3854 0.0186 -0.2765
v 0.3854 0.0784 -0.2833
v 0.3854 0.0172 -0.4248
v 0.3854 0.0840 -0.4276
v 0.4706 0.0500 -0.3929
v 0.4821 0.0500 -0.2993
v 0.2916 0.0500 -0.3974
v 0.3022 0.0500 -0.3062
f 251 262 256
f 251 256 252
f 251 252 258
f 251 258 261
f 251 261 262
f 252 256 260
f 256 262 255
f 262 261 253
f 261 258 257
f 258 252 259
f 254 260 255
f 254 255 253
f 254 253 257
f 254 257 259
f 254 259 260
f 255 260 256
f 253 255 262
f 257 253 261
f 259 257 258
f 260 259 252
